<?xml version="1.0" standalone="no"?>
<!DOCTYPE svg PUBLIC "-//W3C//DTD SVG 20010904//EN"
 "http://www.w3.org/TR/2001/REC-SVG-20010904/DTD/svg10.dtd">
<svg version="1.0" xmlns="http://www.w3.org/2000/svg"
 width="107.000000pt" height="85.000000pt" viewBox="0 0 107.000000 85.000000"
 preserveAspectRatio="xMidYMid meet">

<g transform="translate(0.000000,85.000000) scale(0.100000,-0.100000)"
fill="currentColor" stroke="none">
<path d="M259 771 l-24 -19 0 -255 c0 -237 1 -256 19 -276 19 -21 26 -21 351
-21 325 0 332 0 351 21 18 20 19 39 19 271 l0 250 -28 24 -28 24 -318 0 c-299
0 -320 -1 -342 -19z m201 -150 l142 -89 142 86 c77 46 144 87 149 89 4 2 7
-13 7 -34 l0 -38 -142 -85 c-78 -47 -146 -86 -152 -88 -6 -1 -74 38 -151 86
-136 85 -140 89 -143 125 -2 20 -1 37 2 37 2 0 68 -40 146 -89z"/>
<path d="M80 386 c0 -261 6 -308 40 -326 11 -6 158 -10 364 -10 l346 0 0 35 0
35 -335 0 -335 0 0 260 0 260 -40 0 -40 0 0 -254z"/>
</g>
</svg>
