<?xml version="1.0" standalone="no"?>
<!DOCTYPE svg PUBLIC "-//W3C//DTD SVG 20010904//EN"
 "http://www.w3.org/TR/2001/REC-SVG-20010904/DTD/svg10.dtd">
<svg version="1.0" xmlns="http://www.w3.org/2000/svg"
 width="115.000000pt" height="93.000000pt" viewBox="0 0 115.000000 93.000000"
 preserveAspectRatio="xMidYMid meet">

<g transform="translate(0.000000,93.000000) scale(0.100000,-0.100000)"
fill="currentColor" stroke="none">
<path d="M84 836 l-34 -34 0 -352 c0 -365 1 -378 44 -412 19 -16 61 -18 486
-18 516 0 497 -2 526 66 21 49 20 669 0 719 -28 65 -24 65 -532 65 l-456 0
-34 -34z m319 -187 l178 -111 178 111 c142 89 185 111 214 111 l37 0 0 -320 0
-320 -55 0 -55 0 0 230 c0 127 -3 230 -6 230 -3 0 -75 -43 -159 -96 l-153 -95
-159 99 -158 99 -3 -234 -2 -234 -53 3 -52 3 -3 318 -2 317 38 0 c31 0 70 -20
215 -111z"/>
</g>
</svg>
