<svg width="256" height="256" viewBox="0 0 256 256" fill="none" xmlns="http://www.w3.org/2000/svg">
<path d="M234.667 64V42.6667L149.333 96L64 42.6667V64L149.333 117.333L234.667 64ZM234.667 21.3334C240.325 21.3334 245.751 23.581 249.752 27.5818C253.752 31.5825 256 37.0088 256 42.6667V170.667C256 176.325 253.752 181.751 249.752 185.752C245.751 189.752 240.325 192 234.667 192H64C52.16 192 42.6667 182.4 42.6667 170.667V42.6667C42.6667 30.8267 52.16 21.3334 64 21.3334H234.667ZM21.3333 64V213.333H213.333V234.667H21.3333C15.6754 234.667 10.2492 232.419 6.24839 228.418C2.24761 224.418 0 218.991 0 213.333V64H21.3333Z" fill="#831216"/>
</svg>
