<svg width="256" height="256" viewBox="0 0 256 256" fill="none" xmlns="http://www.w3.org/2000/svg">
<path d="M213.333 192H192V98.6666L128 138.667L63.9997 98.6666V192H42.6663V64H55.4663L128 109.333L200.533 64H213.333M213.333 42.6666H42.6663C30.8263 42.6666 21.333 52.16 21.333 64V192C21.333 197.658 23.5806 203.084 27.5814 207.085C31.5822 211.086 37.0084 213.333 42.6663 213.333H213.333C218.991 213.333 224.417 211.086 228.418 207.085C232.419 203.084 234.666 197.658 234.666 192V64C234.666 52.16 225.066 42.6666 213.333 42.6666Z" fill="#831216"/>
</svg>
