<svg width="400" height="400" viewBox="0 0 400 400" fill="none" xmlns="http://www.w3.org/2000/svg">
<mask id="mask0_270_9699" style="mask-type:luminance" maskUnits="userSpaceOnUse" x="0" y="0" width="400" height="400">
<path d="M200 0C89.5428 0 0 89.5428 0 200C0 310.457 89.5428 400 200 400C310.457 400 400 310.457 400 200C400 89.5428 310.457 0 200 0Z" fill="white"/>
</mask>
<g mask="url(#mask0_270_9699)">
<path d="M440.01 -39.9988H-39.9902V440.001H440.01V-39.9988Z" fill="white"/>
</g>
<mask id="mask1_270_9699" style="mask-type:luminance" maskUnits="userSpaceOnUse" x="0" y="0" width="400" height="400">
<path d="M0 0H399.902V399.902H0V0Z" fill="white"/>
</mask>
<g mask="url(#mask1_270_9699)">
<mask id="mask2_270_9699" style="mask-type:luminance" maskUnits="userSpaceOnUse" x="0" y="0" width="400" height="400">
<path d="M199.998 0C89.5429 0 0 89.5429 0 199.998C0 310.455 89.5429 399.998 199.998 399.998C310.455 399.998 399.998 310.455 399.998 199.998C399.998 89.5429 310.455 0 199.998 0Z" fill="white"/>
</mask>
<g mask="url(#mask2_270_9699)">
<path d="M199.998 0C89.5429 0 0 89.5429 0 199.998C0 310.456 89.5429 399.998 199.998 399.998C310.455 399.998 399.996 310.456 399.996 199.998C399.996 89.5429 310.455 0 199.998 0Z" stroke="#831216" stroke-width="49.1389"/>
</g>
</g>
<mask id="mask3_270_9699" style="mask-type:luminance" maskUnits="userSpaceOnUse" x="163" y="287" width="73" height="56">
<path d="M163.94 287.107H235.964V342.717H163.94V287.107Z" fill="white"/>
</mask>
<g mask="url(#mask3_270_9699)">
<path d="M235.269 298.668C234.698 297.975 233.845 297.574 232.946 297.574H181.538L179.063 289.262C178.683 287.983 177.51 287.107 176.177 287.107H166.978C165.315 287.107 163.965 288.457 163.965 290.12C163.965 291.785 165.315 293.133 166.978 293.133H173.928L185.19 330.957C183.969 333.195 182.811 336.399 184.125 339.082C185.286 341.459 187.914 342.664 191.93 342.664C192.001 342.664 192.074 342.661 192.148 342.655C192.408 342.63 218.365 340.251 227.316 340.757C228.62 340.828 229.75 339.829 229.825 338.517C229.899 337.205 228.895 336.081 227.584 336.009C218.496 335.496 193.959 337.711 191.824 337.907C189.621 337.892 188.602 337.408 188.398 336.993C188.17 336.532 188.332 335.658 188.714 334.671C188.778 334.667 188.841 334.667 188.907 334.659L228.232 329.902C229.532 329.744 230.581 328.766 230.83 327.481L235.905 301.158C236.073 300.274 235.842 299.36 235.269 298.668ZM213.44 313.284H201.073V303.6H213.44V313.284ZM187.067 316.139H198.218V327.462L190.707 328.372L187.067 316.139ZM201.073 316.139H213.44V325.622L201.073 327.117V316.139ZM227.431 313.284H216.295V303.6H229.297L227.431 313.284ZM198.218 303.6V313.284H186.216L183.332 303.6H198.218ZM216.295 325.274V316.139H226.88L225.329 324.183L216.295 325.274Z" fill="#831216"/>
</g>
<path d="M194.248 351.007C194.248 351.402 194.209 351.794 194.132 352.182C194.055 352.57 193.941 352.946 193.789 353.31C193.638 353.675 193.453 354.022 193.233 354.352C193.013 354.68 192.765 354.985 192.485 355.262C192.205 355.542 191.9 355.793 191.572 356.013C191.243 356.231 190.897 356.418 190.531 356.568C190.166 356.719 189.79 356.835 189.402 356.912C189.015 356.989 188.623 357.027 188.227 357.027C187.832 357.027 187.44 356.989 187.053 356.912C186.665 356.835 186.289 356.719 185.924 356.568C185.558 356.418 185.211 356.231 184.883 356.013C184.555 355.793 184.25 355.542 183.97 355.262C183.69 354.985 183.442 354.68 183.222 354.352C183.002 354.022 182.817 353.675 182.666 353.31C182.514 352.946 182.4 352.57 182.323 352.182C182.246 351.794 182.207 351.402 182.207 351.007C182.207 350.612 182.246 350.22 182.323 349.832C182.4 349.445 182.514 349.068 182.666 348.702C182.817 348.337 183.002 347.99 183.222 347.662C183.442 347.332 183.69 347.029 183.97 346.75C184.25 346.47 184.555 346.221 184.883 346.001C185.211 345.781 185.558 345.596 185.924 345.444C186.289 345.293 186.665 345.179 187.053 345.102C187.44 345.025 187.832 344.987 188.227 344.987C188.623 344.987 189.015 345.025 189.402 345.102C189.79 345.179 190.166 345.293 190.531 345.444C190.897 345.596 191.243 345.781 191.572 346.001C191.9 346.221 192.205 346.47 192.485 346.75C192.765 347.029 193.013 347.332 193.233 347.662C193.453 347.99 193.638 348.337 193.789 348.702C193.941 349.068 194.055 349.445 194.132 349.832C194.209 350.22 194.248 350.612 194.248 351.007Z" fill="#831216"/>
<path d="M228.506 351.007C228.506 351.402 228.467 351.794 228.39 352.182C228.313 352.57 228.199 352.946 228.047 353.31C227.896 353.675 227.711 354.022 227.491 354.352C227.271 354.68 227.022 354.985 226.743 355.262C226.463 355.542 226.158 355.793 225.83 356.013C225.5 356.231 225.155 356.418 224.789 356.568C224.424 356.719 224.048 356.835 223.66 356.912C223.272 356.989 222.881 357.027 222.485 357.027C222.09 357.027 221.698 356.989 221.311 356.912C220.923 356.835 220.547 356.719 220.182 356.568C219.816 356.418 219.47 356.231 219.14 356.013C218.812 355.793 218.508 355.542 218.228 355.262C217.948 354.985 217.699 354.68 217.48 354.352C217.26 354.022 217.074 353.675 216.924 353.31C216.772 352.946 216.658 352.57 216.581 352.182C216.503 351.794 216.465 351.402 216.465 351.007C216.465 350.612 216.503 350.22 216.581 349.832C216.658 349.445 216.772 349.068 216.924 348.702C217.074 348.337 217.26 347.99 217.48 347.662C217.699 347.332 217.948 347.029 218.228 346.75C218.508 346.47 218.812 346.221 219.14 346.001C219.47 345.781 219.816 345.596 220.182 345.444C220.547 345.293 220.923 345.179 221.311 345.102C221.698 345.025 222.09 344.987 222.485 344.987C222.881 344.987 223.272 345.025 223.66 345.102C224.048 345.179 224.424 345.293 224.789 345.444C225.155 345.596 225.5 345.781 225.83 346.001C226.158 346.221 226.463 346.47 226.743 346.75C227.022 347.029 227.271 347.332 227.491 347.662C227.711 347.99 227.896 348.337 228.047 348.702C228.199 349.068 228.313 349.445 228.39 349.832C228.467 350.22 228.506 350.612 228.506 351.007Z" fill="#831216"/>
<path d="M133.693 195.733C132.005 195.611 130.119 195.453 128.033 195.26C125.964 195.048 123.975 194.622 122.065 193.983C120.175 193.341 118.628 192.321 117.42 190.92C115.765 188.953 115.03 187.083 115.219 185.314C115.425 183.544 116.284 182.049 117.796 180.831C119.305 179.595 121.158 178.9 123.357 178.746C124.719 178.603 126.261 178.752 127.981 179.186C129.702 179.622 131.436 180.019 133.186 180.376C134.933 180.716 136.548 180.679 138.031 180.264C139.513 179.83 140.684 178.657 141.546 176.744C142.559 174.666 142.551 172.899 141.525 171.441C140.499 169.985 139.073 168.802 137.248 167.895C135.439 166.966 133.782 166.236 132.275 165.704C126.261 163.518 121.668 160.245 118.496 155.885C115.344 151.524 113.892 146.045 114.137 139.45C114.364 132.876 116.38 127.008 120.178 121.85C123.998 116.688 128.901 112.92 134.889 110.55C137.815 109.334 141.06 108.503 144.623 108.057C148.207 107.612 151.486 108.108 154.465 109.549C156.151 110.359 157.495 111.568 158.5 113.177C159.503 114.784 159.879 116.429 159.627 118.111C159.389 119.774 158.141 121.103 155.883 122.103C153.546 123.088 151.224 124.373 148.913 125.953C146.602 127.533 144.588 129.288 142.871 131.215C141.174 133.14 140.018 135.187 139.405 137.353C138.793 139.52 138.946 141.701 139.862 143.895C140.776 146.071 142.746 148.183 145.769 150.231C147.657 151.561 149.567 152.758 151.502 153.823C153.454 154.867 155.296 156.044 157.034 157.351C158.77 158.659 160.244 160.395 161.455 162.56C163.035 165.224 164.05 168.189 164.501 171.454C164.953 174.72 164.729 177.851 163.83 180.849C162.862 184.057 161.303 186.694 159.154 188.76C157.003 190.806 154.511 192.359 151.681 193.416C148.869 194.471 145.917 195.16 142.823 195.482C139.731 195.804 136.687 195.887 133.693 195.733Z" stroke="#831216" stroke-width="21.335"/>
<path d="M171.981 192.008C169.032 191.192 167.053 189.79 166.04 187.797C165.046 185.785 164.653 183.474 164.857 180.862C165.081 178.25 165.546 175.638 166.252 173.023C166.958 170.39 167.562 168.007 168.067 165.876C169.402 160.258 170.884 154.659 172.515 149.076C174.146 143.495 175.851 137.93 177.629 132.384C179.119 127.674 181.296 123.856 184.167 120.932C187.035 117.988 191.117 116.425 196.41 116.244C199.371 116.132 201.8 116.811 203.696 118.281C205.614 119.749 207.161 121.674 208.343 124.055C209.543 126.435 210.567 128.956 211.418 131.616C212.267 134.257 213.079 136.715 213.852 138.985L227.386 176.302C228.31 178.814 228.74 181.061 228.679 183.042C228.617 185.004 227.49 186.9 225.299 188.727C223.127 190.48 221.013 191.29 218.956 191.155C216.9 191.02 215.07 189.782 213.463 187.442C212.697 186.298 212.058 184.859 211.547 183.121C211.055 181.385 210.517 179.686 209.933 178.023C209.367 176.36 208.544 175.116 207.465 174.29C207.317 174.124 206.391 173.974 204.686 173.835C202.982 173.698 201.011 173.582 198.769 173.484C196.53 173.387 194.483 173.364 192.633 173.412C190.781 173.461 189.626 173.671 189.167 174.045C188.117 174.977 187.386 176.425 186.972 178.389C186.578 180.355 186.211 182.384 185.872 184.477C185.552 186.572 184.896 188.223 183.904 189.433C182.564 191.107 180.756 192.108 178.48 192.438C176.206 192.749 174.039 192.604 171.981 192.008ZM194.284 157.88C195.357 157.726 196.401 157.533 197.419 157.305C198.434 157.058 199.443 156.858 200.442 156.703C199.894 155.189 199.367 153.673 198.858 152.159C198.366 150.644 197.884 149.13 197.413 147.614C196.887 149.284 196.36 150.98 195.833 152.706C195.326 154.412 194.809 156.136 194.284 157.88Z" stroke="#831216" stroke-width="21.335"/>
<path d="M229.883 190.545C228.734 188.983 228.001 187.052 227.686 184.751C227.391 182.436 227.343 179.976 227.542 177.372C227.76 174.753 228.08 172.228 228.504 169.795C228.946 167.364 229.287 165.287 229.53 163.562C229.878 161.531 230.192 159.07 230.474 156.176C230.757 153.265 231.151 150.198 231.65 146.975C232.171 143.732 232.877 140.594 233.768 137.555C234.679 134.519 235.865 131.892 237.328 129.673C238.809 127.455 240.661 125.925 242.881 125.082C245.258 124.18 247.534 124.104 249.71 124.855C251.89 125.588 253.846 126.784 255.582 128.441C257.318 130.098 258.664 131.923 259.623 133.913C261.475 137.609 262.995 141.385 264.181 145.239C265.37 149.074 266.915 152.87 268.817 156.626C268.921 154.814 268.954 152.743 268.921 150.414C268.888 148.086 268.986 145.734 269.22 143.358C269.451 140.981 269.947 138.751 270.709 136.668C271.49 134.569 272.673 132.833 274.258 131.464C276.328 129.675 278.425 128.865 280.549 129.035C282.671 129.205 284.492 130.071 286.014 131.633C287.536 133.196 288.319 135.271 288.363 137.86C288.558 141.394 288.641 145.41 288.61 149.909C288.601 154.39 288.35 158.969 287.856 163.645C287.362 168.321 286.562 172.818 285.453 177.137C284.345 181.437 282.833 185.204 280.917 188.439C278.824 191.973 276.706 193.96 274.561 194.402C272.436 194.845 270.31 194.238 268.184 192.581C266.058 190.922 264.031 188.632 262.102 185.709C260.177 182.77 258.406 179.658 256.791 176.377C255.177 173.094 253.763 170.063 252.545 167.285C251.33 164.488 250.406 162.418 249.775 161.074C249.556 161.815 249.118 163.335 248.466 165.632C247.833 167.932 247.027 170.561 246.05 173.514C245.076 176.452 243.994 179.349 242.804 182.208C241.614 185.069 240.325 187.499 238.94 189.504C237.574 191.491 236.128 192.679 234.602 193.07C233.076 193.46 231.502 192.619 229.883 190.545Z" stroke="#831216" stroke-width="21.335"/>
<path d="M133.683 195.749C131.996 195.621 130.111 195.453 128.028 195.247C125.948 195.042 123.961 194.618 122.063 193.974C120.169 193.331 118.616 192.313 117.403 190.918C115.746 188.958 115.014 187.095 115.211 185.324C115.412 183.549 116.268 182.051 117.781 180.826C119.297 179.597 121.153 178.908 123.344 178.758C124.696 178.615 126.234 178.758 127.958 179.19C129.687 179.622 131.425 180.015 133.174 180.37C134.922 180.721 136.538 180.685 138.02 180.262C139.501 179.842 140.676 178.671 141.546 176.752C142.549 174.664 142.536 172.892 141.508 171.435C140.483 169.981 139.063 168.794 137.248 167.878C135.437 166.964 133.78 166.238 132.279 165.702C126.255 163.511 121.664 160.237 118.506 155.88C115.346 151.518 113.884 146.048 114.116 139.468C114.347 132.89 116.365 127.02 120.173 121.86C123.979 116.701 128.884 112.932 134.887 110.556C137.813 109.336 141.062 108.503 144.633 108.056C148.207 107.604 151.481 108.1 154.455 109.545C156.141 110.363 157.487 111.578 158.491 113.187C159.494 114.798 159.872 116.435 159.625 118.102C159.382 119.769 158.13 121.1 155.867 122.091C153.537 123.1 151.214 124.39 148.899 125.965C146.589 127.539 144.58 129.294 142.873 131.227C141.17 133.156 140.007 135.199 139.386 137.353C138.768 139.51 138.917 141.686 139.833 143.881C140.753 146.078 142.729 148.2 145.759 150.247C147.651 151.574 149.567 152.766 151.508 153.819C153.452 154.875 155.29 156.055 157.024 157.361C158.757 158.669 160.231 160.401 161.446 162.562C163.02 165.222 164.033 168.185 164.486 171.451C164.943 174.718 164.717 177.845 163.807 180.833C162.844 184.059 161.288 186.701 159.139 188.758C156.994 190.81 154.505 192.365 151.677 193.418C148.853 194.473 145.894 195.162 142.804 195.486C139.712 195.806 136.671 195.893 133.683 195.749Z" fill="white"/>
<path d="M171.987 192.024C169.024 191.202 167.043 189.79 166.046 187.788C165.047 185.788 164.653 183.479 164.865 180.859C165.076 178.241 165.533 175.624 166.239 173.004C166.943 170.386 167.554 168.016 168.075 165.89C169.402 160.269 170.88 154.667 172.512 149.084C174.148 143.498 175.857 137.933 177.643 132.387C179.128 127.68 181.302 123.859 184.163 120.921C187.028 117.985 191.115 116.422 196.424 116.237C199.381 116.141 201.812 116.823 203.716 118.289C205.618 119.755 207.165 121.681 208.353 124.061C209.541 126.443 210.562 128.959 211.416 131.607C212.269 134.258 213.079 136.715 213.847 138.984L227.396 176.322C228.316 178.812 228.747 181.044 228.685 183.019C228.623 184.995 227.497 186.897 225.305 188.722C223.118 190.481 221.002 191.291 218.955 191.152C216.906 191.013 215.081 189.775 213.476 187.433C212.709 186.303 212.074 184.867 211.571 183.127C211.065 181.384 210.523 179.682 209.943 178.019C209.366 176.353 208.542 175.109 207.473 174.285C207.323 174.131 206.395 173.984 204.688 173.845C202.979 173.702 201.007 173.581 198.77 173.482C196.532 173.386 194.483 173.363 192.628 173.413C190.77 173.459 189.615 173.675 189.163 174.061C188.108 174.972 187.377 176.414 186.972 178.39C186.571 180.365 186.204 182.398 185.876 184.485C185.546 186.569 184.89 188.22 183.909 189.439C182.554 191.121 180.741 192.12 178.469 192.433C176.2 192.747 174.04 192.61 171.987 192.024ZM194.294 157.873C195.353 157.715 196.395 157.518 197.419 157.286C198.442 157.055 199.445 156.858 200.429 156.692C199.888 155.18 199.366 153.668 198.862 152.155C198.357 150.643 197.875 149.131 197.412 147.618C196.891 149.291 196.372 150.982 195.853 152.695C195.332 154.404 194.813 156.129 194.294 157.873Z" fill="white"/>
<path d="M229.891 190.546C228.744 188.993 228.016 187.058 227.708 184.743C227.403 182.429 227.361 179.967 227.577 177.359C227.793 174.751 228.113 172.232 228.541 169.797C228.973 167.365 229.313 165.284 229.56 163.555C229.903 161.534 230.217 159.07 230.501 156.163C230.783 153.258 231.176 150.191 231.681 146.966C232.191 143.736 232.897 140.606 233.803 137.575C234.708 134.541 235.896 131.915 237.368 129.697C238.844 127.475 240.69 125.937 242.908 125.083C245.279 124.172 247.55 124.093 249.722 124.844C251.892 125.59 253.85 126.788 255.594 128.439C257.341 130.091 258.69 131.919 259.637 133.925C261.489 137.604 263.005 141.37 264.189 145.222C265.377 149.07 266.928 152.876 268.842 156.642C268.95 154.821 268.983 152.749 268.942 150.422C268.9 148.092 268.996 145.743 269.228 143.37C269.459 140.993 269.961 138.76 270.732 136.665C271.508 134.572 272.688 132.837 274.274 131.464C276.352 129.689 278.448 128.887 280.563 129.057C282.681 129.223 284.502 130.083 286.026 131.642C287.548 133.196 288.335 135.272 288.387 137.868C288.582 141.393 288.668 145.403 288.649 149.898C288.628 154.388 288.367 158.972 287.87 163.648C287.376 168.32 286.575 172.811 285.47 177.12C284.363 181.431 282.856 185.206 280.948 188.447C278.85 191.971 276.73 193.951 274.59 194.388C272.449 194.83 270.318 194.226 268.194 192.575C266.074 190.924 264.052 188.636 262.129 185.708C260.204 182.776 258.429 179.67 256.805 176.387C255.185 173.1 253.767 170.066 252.553 167.282C251.338 164.495 250.418 162.421 249.791 161.063C249.56 161.809 249.122 163.331 248.479 165.631C247.841 167.926 247.033 170.55 246.057 173.501C245.084 176.454 244 179.358 242.808 182.213C241.62 185.067 240.335 187.496 238.958 189.496C237.578 191.493 236.128 192.683 234.606 193.069C233.082 193.455 231.512 192.614 229.891 190.546Z" fill="white"/>
<path d="M118.431 264.532C117.162 264.391 116.128 263.866 115.332 262.958C114.535 262.047 113.885 260.985 113.379 259.769C112.889 258.552 112.486 257.452 112.174 256.474C111.155 253.459 110.258 250.412 109.481 247.333C108.7 244.241 107.685 241.21 106.435 238.241C105.663 239.561 104.793 241.143 103.829 242.987C102.874 244.812 101.759 246.494 100.484 248.031C99.2223 249.565 97.7524 250.495 96.0761 250.819C94.7335 251.056 93.4372 250.871 92.1892 250.267C90.9392 249.648 89.7123 248.793 88.5105 247.703C87.3165 246.596 86.2169 245.458 85.2081 244.289C84.2011 243.12 83.2713 242.146 82.4226 241.365C82.031 243.702 82.058 246.102 82.5017 248.566C82.9453 251.031 83.4584 253.512 84.041 256.01C84.6332 258.492 85.0171 260.971 85.1907 263.448C85.3797 265.921 84.9882 268.338 84.014 270.699C83.1633 272.815 81.8593 274.102 80.102 274.561C78.3446 275.02 76.5969 274.503 74.8589 273.01C73.5491 271.833 72.5692 270.419 71.9229 268.768C71.2883 267.115 70.8331 265.371 70.5533 263.539C70.2871 261.7 70.0344 259.991 69.7914 258.405C69.2628 255.018 68.8037 251.621 68.4141 248.211C68.0206 244.788 67.6386 241.392 67.2721 238.02C67.0522 236.027 66.8149 233.89 66.5622 231.606C66.3211 229.318 66.624 227.211 67.4669 225.284C68.4411 223.153 69.6892 221.758 71.2092 221.102C72.7389 220.429 74.421 220.284 76.2536 220.664C78.0842 221.031 79.9033 221.716 81.7146 222.717C83.5337 223.702 85.2466 224.796 86.8497 225.996C88.4507 227.182 89.7895 228.251 90.8697 229.2C91.2787 227.861 91.8304 226.268 92.5229 224.426C93.2115 222.568 94.0333 220.72 94.9843 218.88C95.9353 217.04 97.0426 215.433 98.3003 214.055C99.558 212.667 100.985 211.748 102.588 211.301C104.205 210.849 106.024 211.118 108.046 212.109C109.325 212.721 110.366 213.608 111.173 214.773C111.979 215.938 112.67 217.182 113.246 218.508C113.819 219.819 114.384 221.077 114.942 222.279C116.284 225.165 117.542 228.083 118.715 231.029C119.901 233.973 120.951 236.972 121.865 240.03C122.12 240.78 122.461 241.922 122.891 243.458C123.335 244.991 123.74 246.704 124.109 248.6C124.489 250.493 124.751 252.402 124.898 254.327C125.056 256.249 124.98 258.018 124.672 259.632C124.361 261.231 123.723 262.489 122.756 263.4C121.788 264.299 120.345 264.677 118.431 264.532Z" stroke="#831216" stroke-width="15.9809"/>
<path d="M130.424 262.052C128.158 261.722 126.555 260.864 125.617 259.477C124.691 258.075 124.182 256.394 124.093 254.433C124.016 252.473 124.119 250.486 124.398 248.478C124.678 246.454 124.906 244.627 125.083 242.997C125.55 238.698 126.13 234.398 126.823 230.096C127.516 225.796 128.264 221.502 129.07 217.214C129.736 213.574 131.001 210.534 132.861 208.094C134.718 205.64 137.606 204.099 141.524 203.47C143.713 203.111 145.583 203.391 147.13 204.305C148.69 205.218 150.019 206.504 151.119 208.163C152.234 209.82 153.229 211.599 154.109 213.497C154.987 215.382 155.818 217.131 156.605 218.748L170.141 245.22C171.059 247.002 171.59 248.63 171.728 250.11C171.865 251.574 171.204 253.086 169.745 254.649C168.295 256.155 166.798 256.954 165.259 257.045C163.717 257.135 162.242 256.387 160.83 254.795C160.152 254.018 159.545 253.007 159.003 251.765C158.476 250.519 157.917 249.305 157.328 248.125C156.754 246.942 156.026 246.094 155.147 245.58C155.021 245.47 154.317 245.445 153.038 245.501C151.759 245.559 150.284 245.656 148.609 245.791C146.935 245.928 145.413 246.101 144.041 246.31C142.67 246.518 141.831 246.782 141.524 247.102C140.831 247.893 140.423 249.037 140.297 250.536C140.187 252.033 140.104 253.576 140.048 255.164C140.004 256.749 139.67 258.038 139.047 259.029C138.206 260.399 136.956 261.312 135.295 261.769C133.634 262.21 132.01 262.305 130.424 262.052ZM143.821 234.612C144.605 234.398 145.363 234.157 146.098 233.893C146.831 233.615 147.56 233.372 148.287 233.163C147.741 232.089 147.207 231.013 146.688 229.934C146.183 228.854 145.683 227.774 145.191 226.692C144.956 227.98 144.722 229.292 144.493 230.623C144.273 231.938 144.051 233.268 143.821 234.612Z" stroke="#831216" stroke-width="15.9809"/>
<path d="M214.757 253.596C212.914 255.441 211.225 256.432 209.687 256.567C208.15 256.702 206.763 256.226 205.524 255.136C204.288 254.046 203.196 252.601 202.253 250.799C201.323 248.998 200.517 247.069 199.832 245.014C199.147 242.944 198.59 240.992 198.157 239.154C197.739 237.315 197.405 235.886 197.152 234.864C196.697 234.997 195.916 235.155 194.811 235.338C193.717 235.522 192.66 235.739 191.637 235.992C190.615 236.229 189.942 236.519 189.614 236.856C189.218 237.265 189.002 238.052 188.964 239.218C188.927 240.383 188.858 241.251 188.757 241.82C188.381 243.477 187.965 245.161 187.505 246.874C187.048 248.587 186.261 250.132 185.146 251.509C183.705 253.292 182.037 254.358 180.142 254.707C178.248 255.043 176.468 254.711 174.801 253.712C173.136 252.711 171.89 251.172 171.068 249.09C170.171 246.775 169.784 244.196 169.905 241.351C170.04 238.506 170.32 235.653 170.746 232.788C171.186 229.912 171.475 227.279 171.618 224.891C171.834 220.963 171.824 216.943 171.593 212.829C171.362 208.714 171.527 204.752 172.091 200.944C172.44 198.552 173.368 196.652 174.87 195.242C176.387 193.816 178.291 192.802 180.582 192.198C182.876 191.592 185.353 191.282 188.015 191.268C190.69 191.253 193.35 191.48 195.991 191.951C198.647 192.422 201.091 193.056 203.323 193.853C205.553 194.636 207.384 195.466 208.811 196.345C211.851 198.224 214.043 200.464 215.387 203.062C216.745 205.647 217.372 208.363 217.264 211.206C217.172 214.052 216.433 216.864 215.048 219.646C213.678 222.412 211.819 224.924 209.469 227.18C210.52 228.758 211.701 230.674 213.013 232.927C214.324 235.167 215.424 237.549 216.309 240.072C217.208 242.582 217.623 245.014 217.55 247.373C217.475 249.733 216.545 251.806 214.757 253.596ZM188.042 224.36C189.681 223.71 191.286 223.004 192.855 222.244C194.436 221.484 195.935 220.579 197.345 219.532C199.197 218.199 200.223 216.893 200.424 215.614C200.64 214.335 200.308 213.176 199.433 212.136C198.57 211.094 197.394 210.288 195.9 209.717C194.421 209.144 192.885 208.926 191.292 209.061C190.046 209.136 189.008 209.272 188.179 209.464C187.365 209.644 186.799 210.305 186.485 211.447C186.153 212.464 186.099 213.783 186.319 215.402C186.552 217.02 186.863 218.637 187.249 220.253C187.648 221.856 187.912 223.224 188.042 224.36Z" stroke="#831216" stroke-width="15.9809"/>
<path d="M250.099 257.357C247.92 258.815 245.958 259.425 244.21 259.182C242.464 258.938 240.923 258.13 239.586 256.757C238.263 255.383 237.098 253.655 236.091 251.572C235.084 249.475 234.214 247.266 233.477 244.943C232.756 242.623 232.113 240.441 231.546 238.398C230.995 236.357 230.491 234.691 230.04 233.396C229.802 233.541 229.635 234.166 229.534 235.271C229.434 236.375 229.384 237.687 229.386 239.205C229.388 240.707 229.384 242.114 229.378 243.421C229.384 244.731 229.334 245.667 229.226 246.228C229.017 247.295 228.666 248.474 228.172 249.766C227.68 251.057 227.021 252.181 226.195 253.136C225.371 254.091 224.297 254.648 222.974 254.807C221.245 254.996 219.905 254.652 218.954 253.771C218.005 252.878 217.372 251.651 217.055 250.09C216.753 248.518 216.627 246.766 216.677 244.835C216.743 242.891 216.919 240.952 217.206 239.016C217.507 237.079 217.802 235.31 218.086 233.707C218.371 232.104 218.552 230.881 218.63 230.04C218.942 227.214 219.239 224.394 219.525 221.579C219.808 218.751 220.051 215.947 220.248 213.167C220.371 211.815 220.562 210.32 220.823 208.688C221.097 207.056 221.62 205.578 222.395 204.257C223.17 202.922 224.401 202.108 226.083 201.815C228.055 201.423 229.579 201.591 230.653 202.314C231.729 203.04 232.49 204.104 232.931 205.509C233.375 206.913 233.57 208.526 233.516 210.343C233.46 212.162 233.267 213.989 232.933 215.825C232.599 217.646 232.219 219.311 231.789 220.815C231.375 222.31 231.014 223.439 230.709 224.205C231.205 223.792 232.148 222.993 233.537 221.811C234.924 220.628 236.612 219.299 238.599 217.824C240.584 216.348 242.663 214.915 244.837 213.526C247.025 212.123 249.139 210.993 251.18 210.134C253.236 209.263 255.028 208.842 256.558 208.869C258.101 208.884 259.212 209.606 259.891 211.031C260.75 212.766 260.809 214.401 260.071 215.935C259.332 217.469 258.118 218.883 256.427 220.177C254.75 221.471 252.887 222.66 250.84 223.74C248.807 224.808 246.888 225.719 245.078 226.473C243.284 227.216 241.878 227.825 240.859 228.304C242.036 229.149 243.383 230.495 244.899 232.347C246.415 234.197 247.831 236.309 249.147 238.684C250.476 241.047 251.511 243.445 252.25 245.879C253.003 248.315 253.259 250.551 253.018 252.59C252.779 254.616 251.805 256.203 250.099 257.357Z" stroke="#831216" stroke-width="15.9809"/>
<path d="M266.791 262.207C265.674 261.997 264.466 261.811 263.17 261.651C261.876 261.491 260.643 261.175 259.478 260.7C258.326 260.214 257.366 259.441 256.592 258.378C255.774 257.18 255.381 255.864 255.411 254.431C255.458 252.986 255.68 251.51 256.077 250.006C256.49 248.49 256.841 247.122 257.126 245.907C257.688 243.53 258.247 241.165 258.803 238.816C259.362 236.453 259.929 234.084 260.504 231.709C261.137 228.949 261.789 226.173 262.456 223.378C263.126 220.585 263.751 217.795 264.331 215.012C264.75 213.468 265.078 211.738 265.311 209.821C265.56 207.907 266.106 206.246 266.951 204.84C267.717 203.546 268.847 202.679 270.34 202.242C271.851 201.792 273.542 201.645 275.417 201.802C277.292 201.958 279.206 202.292 281.156 202.801C283.12 203.312 284.954 203.864 286.663 204.454C288.374 205.031 289.773 205.507 290.861 205.882C292.107 206.3 293.284 206.79 294.393 207.351C295.502 207.899 296.388 208.625 297.051 209.525C297.726 210.428 298.004 211.653 297.883 213.196C297.817 214.805 297.298 216.182 296.32 217.324C295.356 218.468 294.094 219.211 292.533 219.551C291.332 219.79 290.188 219.722 289.102 219.348C288.018 218.96 286.937 218.551 285.861 218.123C284.786 217.695 283.691 217.515 282.576 217.587C281.889 217.571 281.137 217.894 280.319 218.559C279.505 219.209 278.961 220.002 278.685 220.938C278.427 221.863 278.704 222.776 279.522 223.679C280.149 224.319 281.135 224.738 282.481 224.934C283.839 225.135 285.238 225.314 286.677 225.473C288.128 225.633 289.264 225.961 290.089 226.454C291.442 227.29 292.325 228.21 292.742 229.221C293.16 230.216 293.286 231.454 293.12 232.932C293.012 234.703 292.512 236.416 291.623 238.067C290.732 239.72 289.314 240.652 287.369 240.862C286.2 240.924 285.004 240.685 283.78 240.143C282.558 239.589 281.347 239.126 280.147 238.76C278.947 238.391 277.786 238.561 276.665 239.267C275.282 240.162 274.605 241.065 274.63 241.971C274.673 242.868 275.134 243.717 276.013 244.52C276.905 245.322 277.919 246.007 279.053 246.574C280.188 247.141 281.144 247.527 281.926 247.73C283.087 248.005 284.37 248.233 285.776 248.414C287.182 248.58 288.54 248.866 289.846 249.267C291.17 249.659 292.263 250.338 293.124 251.304C293.938 252.149 294.351 253.214 294.362 254.5C294.389 255.775 294.204 257.024 293.803 258.247C293.403 259.47 292.942 260.525 292.422 261.414C291.202 263.316 289.754 264.41 288.077 264.701C286.399 264.99 284.495 264.99 282.364 264.701C279.765 264.338 277.175 263.927 274.596 263.468C272.028 263.013 269.428 262.593 266.791 262.207Z" stroke="#831216" stroke-width="15.9809"/>
<path d="M309.247 272.175C307.659 271.721 306.523 270.986 305.832 269.968C305.159 268.94 304.793 267.753 304.729 266.409C304.667 265.064 304.802 263.704 305.138 262.329C305.476 260.94 305.836 259.681 306.216 258.548C307.7 254.013 309.249 249.522 310.863 245.082C312.491 240.645 313.882 236.081 315.034 231.392C313.55 231.027 311.947 230.612 310.219 230.147C308.493 229.682 306.957 228.947 305.614 227.944C304.285 226.945 303.46 225.541 303.14 223.733C302.829 221.943 303.176 220.277 304.179 218.731C305.182 217.188 306.608 216.289 308.452 216.039C309.878 215.795 311.508 216.017 313.346 216.7C315.188 217.37 317.032 218.135 318.876 218.994C320.74 219.843 322.343 220.516 323.685 221.015C326 221.793 328.473 222.528 331.101 223.22C333.743 223.917 336.008 225.097 337.898 226.762C338.759 227.483 339.395 228.407 339.81 229.536C340.227 230.649 340.333 231.768 340.126 232.892C339.922 234.015 339.297 234.962 338.255 235.732C337.287 236.449 336.031 236.754 334.49 236.646C332.968 236.528 331.429 236.233 329.878 235.761C328.325 235.288 327.001 234.897 325.91 234.584C325.771 235.728 325.557 237.512 325.267 239.939C324.991 242.368 324.609 245.093 324.121 248.112C323.649 251.133 323.005 254.173 322.189 257.227C321.378 260.269 320.381 263.027 319.199 265.5C318.033 267.966 316.633 269.837 314.999 271.116C313.365 272.393 311.448 272.746 309.247 272.175Z" stroke="#831216" stroke-width="15.9809"/>
<path d="M118.424 264.531C117.158 264.388 116.126 263.863 115.329 262.957C114.537 262.046 113.89 260.981 113.393 259.762C112.899 258.543 112.494 257.445 112.181 256.467C111.157 253.454 110.254 250.406 109.473 247.324C108.696 244.237 107.687 241.213 106.448 238.25C105.677 239.567 104.812 241.143 103.856 242.98C102.899 244.816 101.782 246.504 100.507 248.041C99.2357 249.575 97.7639 250.503 96.0934 250.827C94.745 251.058 93.4468 250.869 92.1968 250.256C90.9506 249.644 89.7295 248.79 88.5316 247.694C87.3376 246.599 86.2342 245.464 85.2214 244.291C84.2126 243.119 83.2847 242.144 82.436 241.367C82.0444 243.697 82.0675 246.097 82.5054 248.566C82.9471 251.035 83.4641 253.512 84.0563 255.997C84.6524 258.481 85.0382 260.964 85.2137 263.443C85.3931 265.918 84.9996 268.34 84.0332 270.711C83.1728 272.816 81.865 274.099 80.1057 274.562C78.3464 275.021 76.5988 274.506 74.8665 273.018C73.5548 271.83 72.5826 270.41 71.9498 268.759C71.3133 267.108 70.8542 265.364 70.5764 263.528C70.2986 261.691 70.042 259.984 69.8048 258.404C69.2704 255.021 68.8075 251.62 68.4159 248.203C68.0204 244.789 67.6443 241.396 67.2893 238.026C67.0579 236.026 66.8225 233.882 66.5795 231.599C66.3383 229.315 66.6393 227.214 67.4822 225.295C68.4506 223.161 69.6968 221.761 71.2245 221.097C72.7523 220.43 74.4306 220.283 76.2631 220.657C78.0937 221.028 79.9167 221.71 81.7338 222.702C83.549 223.695 85.2562 224.791 86.8573 225.989C88.4622 227.183 89.799 228.256 90.8696 229.207C91.2863 227.864 91.836 226.267 92.5208 224.415C93.2095 222.563 94.0332 220.719 94.99 218.882C95.9468 217.046 97.0521 215.437 98.3079 214.052C99.5617 212.669 100.995 211.751 102.606 211.298C104.22 210.846 106.041 211.118 108.069 212.116C109.338 212.717 110.376 213.605 111.178 214.778C111.985 215.947 112.677 217.189 113.254 218.504C113.834 219.816 114.4 221.078 114.951 222.285C116.288 225.161 117.548 228.076 118.732 231.028C119.921 233.975 120.97 236.975 121.88 240.024C122.137 240.781 122.478 241.926 122.907 243.458C123.339 244.986 123.744 246.699 124.126 248.597C124.506 250.495 124.77 252.407 124.921 254.33C125.069 256.255 124.986 258.022 124.674 259.631C124.359 261.242 123.719 262.497 122.752 263.396C121.79 264.291 120.347 264.67 118.424 264.531Z" fill="#EBB8B9"/>
<path d="M130.426 262.067C128.146 261.733 126.541 260.869 125.611 259.474C124.685 258.081 124.178 256.401 124.091 254.436C124.008 252.466 124.106 250.477 124.384 248.471C124.662 246.461 124.895 244.64 125.086 243.008C125.544 238.708 126.12 234.409 126.815 230.107C127.509 225.801 128.262 221.507 129.076 217.221C129.739 213.579 130.997 210.535 132.849 208.085C134.704 205.632 137.598 204.092 141.529 203.463C143.709 203.12 145.576 203.405 147.131 204.32C148.684 205.23 150.013 206.515 151.12 208.17C152.231 209.827 153.227 211.6 154.106 213.487C154.986 215.375 155.816 217.127 156.599 218.741L170.148 245.223C171.059 246.997 171.583 248.622 171.722 250.091C171.861 251.563 171.201 253.083 169.747 254.652C168.285 256.164 166.786 256.963 165.248 257.044C163.715 257.127 162.243 256.376 160.835 254.791C160.156 254.025 159.548 253.02 159.014 251.774C158.478 250.524 157.918 249.308 157.332 248.124C156.745 246.941 156.016 246.093 155.148 245.578C155.019 245.481 154.315 245.458 153.034 245.508C151.757 245.56 150.281 245.655 148.605 245.794C146.927 245.929 145.403 246.1 144.029 246.311C142.656 246.517 141.817 246.781 141.514 247.105C140.819 247.889 140.412 249.032 140.295 250.539C140.175 252.042 140.094 253.585 140.048 255.169C140.001 256.748 139.67 258.039 139.052 259.042C138.198 260.412 136.94 261.318 135.279 261.766C133.622 262.213 132.004 262.314 130.426 262.067ZM143.821 234.605C144.596 234.389 145.353 234.148 146.089 233.88C146.83 233.608 147.557 233.369 148.273 233.162C147.733 232.094 147.202 231.021 146.684 229.945C146.169 228.865 145.667 227.78 145.179 226.689C144.951 227.981 144.724 229.287 144.492 230.608C144.265 231.926 144.041 233.259 143.821 234.605Z" fill="#EBB8B9"/>
<path d="M214.755 253.59C212.907 255.438 211.217 256.43 209.686 256.569C208.152 256.708 206.765 256.235 205.527 255.149C204.292 254.059 203.204 252.614 202.263 250.813C201.325 249.007 200.513 247.074 199.825 245.01C199.14 242.948 198.584 240.996 198.158 239.154C197.735 237.313 197.402 235.886 197.155 234.871C196.707 234.991 195.93 235.145 194.825 235.334C193.723 235.519 192.664 235.735 191.646 235.982C190.627 236.225 189.95 236.52 189.616 236.87C189.225 237.271 189.009 238.056 188.968 239.223C188.931 240.386 188.86 241.252 188.752 241.823C188.382 243.475 187.967 245.157 187.51 246.87C187.056 248.579 186.275 250.122 185.164 251.499C183.713 253.289 182.039 254.358 180.141 254.701C178.243 255.041 176.462 254.715 174.801 253.721C173.139 252.724 171.892 251.179 171.059 249.084C170.168 246.775 169.788 244.2 169.917 241.36C170.044 238.517 170.326 235.658 170.758 232.788C171.194 229.914 171.48 227.279 171.615 224.887C171.835 220.963 171.827 216.945 171.592 212.834C171.354 208.72 171.518 204.755 172.085 200.944C172.444 198.548 173.378 196.642 174.886 195.226C176.399 193.812 178.301 192.803 180.596 192.201C182.89 191.596 185.369 191.283 188.034 191.268C190.704 191.252 193.36 191.482 196.005 191.955C198.654 192.423 201.092 193.05 203.32 193.837C205.546 194.624 207.379 195.463 208.814 196.353C211.854 198.232 214.047 200.465 215.396 203.058C216.742 205.651 217.367 208.37 217.271 211.214C217.178 214.053 216.441 216.862 215.064 219.64C213.69 222.417 211.825 224.931 209.47 227.178C210.519 228.749 211.7 230.658 213.011 232.911C214.327 235.164 215.43 237.549 216.321 240.064C217.217 242.576 217.626 245.01 217.548 247.371C217.475 249.728 216.545 251.8 214.755 253.59ZM188.05 224.37C189.686 223.718 191.293 223.01 192.872 222.248C194.45 221.488 195.94 220.585 197.34 219.539C199.192 218.203 200.22 216.893 200.426 215.612C200.631 214.331 200.299 213.172 199.431 212.132C198.567 211.094 197.39 210.288 195.905 209.717C194.423 209.142 192.89 208.926 191.306 209.069C190.056 209.146 189.018 209.277 188.196 209.462C187.379 209.644 186.808 210.303 186.484 211.445C186.154 212.47 186.102 213.791 186.329 215.411C186.555 217.028 186.864 218.642 187.255 220.257C187.651 221.868 187.915 223.239 188.05 224.37Z" fill="#EBB8B9"/>
<path d="M250.118 257.362C247.931 258.816 245.963 259.422 244.215 259.175C242.472 258.932 240.936 258.122 239.609 256.745C238.282 255.371 237.113 253.641 236.106 251.552C235.097 249.465 234.227 247.262 233.498 244.947C232.767 242.628 232.124 240.444 231.569 238.396C231.013 236.349 230.508 234.681 230.056 233.388C229.813 233.539 229.642 234.164 229.54 235.263C229.441 236.365 229.395 237.671 229.401 239.183C229.404 240.695 229.404 242.107 229.401 243.419C229.395 244.731 229.341 245.668 229.239 246.228C229.023 247.289 228.67 248.465 228.181 249.762C227.692 251.058 227.034 252.183 226.206 253.134C225.377 254.086 224.3 254.644 222.973 254.808C221.249 254.993 219.912 254.644 218.961 253.759C218.014 252.875 217.383 251.65 217.07 250.086C216.762 248.517 216.638 246.766 216.7 244.831C216.762 242.898 216.935 240.961 217.225 239.021C217.518 237.076 217.807 235.308 218.097 233.712C218.384 232.113 218.567 230.886 218.644 230.032C218.957 227.213 219.256 224.391 219.54 221.567C219.827 218.739 220.068 215.938 220.265 213.164C220.388 211.806 220.581 210.313 220.844 208.681C221.106 207.051 221.625 205.572 222.402 204.245C223.178 202.917 224.404 202.105 226.083 201.806C228.062 201.417 229.588 201.583 230.658 202.308C231.733 203.029 232.491 204.094 232.935 205.502C233.376 206.912 233.571 208.527 233.521 210.348C233.469 212.169 233.274 213.994 232.935 215.819C232.599 217.64 232.221 219.303 231.8 220.803C231.378 222.306 231.017 223.44 230.72 224.206C231.214 223.795 232.155 222.999 233.544 221.814C234.933 220.626 236.619 219.297 238.606 217.825C240.597 216.355 242.682 214.922 244.864 213.527C247.043 212.129 249.158 210.994 251.206 210.124C253.253 209.25 255.045 208.826 256.584 208.851C258.122 208.878 259.223 209.605 259.887 211.035C260.755 212.769 260.82 214.399 260.08 215.927C259.343 217.455 258.131 218.87 256.445 220.171C254.763 221.473 252.904 222.659 250.867 223.728C248.83 224.798 246.904 225.709 245.095 226.459C243.29 227.206 241.879 227.817 240.867 228.296C242.043 229.144 243.39 230.495 244.902 232.346C246.418 234.194 247.838 236.303 249.161 238.674C250.489 241.046 251.524 243.45 252.271 245.888C253.021 248.323 253.276 250.554 253.035 252.586C252.792 254.613 251.82 256.205 250.118 257.362Z" fill="#EBB8B9"/>
<path d="M266.783 262.202C265.666 261.99 264.457 261.804 263.157 261.646C261.86 261.492 260.633 261.176 259.476 260.697C258.323 260.223 257.358 259.451 256.583 258.375C255.768 257.177 255.381 255.859 255.417 254.424C255.458 252.989 255.68 251.515 256.081 250.003C256.486 248.487 256.831 247.117 257.115 245.898C257.68 243.527 258.241 241.166 258.797 238.814C259.356 236.459 259.92 234.09 260.487 231.708C261.123 228.942 261.777 226.164 262.447 223.375C263.114 220.581 263.743 217.796 264.329 215.018C264.735 213.475 265.062 211.747 265.309 209.833C265.556 207.915 266.1 206.251 266.945 204.841C267.711 203.54 268.843 202.671 270.34 202.233C271.841 201.797 273.531 201.654 275.41 201.808C277.287 201.959 279.202 202.29 281.158 202.804C283.112 203.313 284.943 203.861 286.652 204.447C288.359 205.03 289.758 205.51 290.85 205.89C292.1 206.297 293.276 206.777 294.383 207.333C295.495 207.888 296.384 208.622 297.053 209.532C297.721 210.443 297.997 211.667 297.879 213.205C297.806 214.806 297.285 216.179 296.312 217.325C295.344 218.473 294.079 219.216 292.516 219.555C291.316 219.792 290.174 219.723 289.09 219.347C288.004 218.967 286.924 218.56 285.85 218.128C284.773 217.692 283.681 217.514 282.57 217.595C281.88 217.576 281.127 217.894 280.309 218.552C279.495 219.206 278.955 220.001 278.689 220.936C278.421 221.868 278.693 222.786 279.507 223.691C280.143 224.324 281.137 224.74 282.485 224.941C283.832 225.138 285.228 225.315 286.675 225.473C288.12 225.628 289.256 225.958 290.086 226.461C291.428 227.294 292.308 228.213 292.725 229.216C293.145 230.219 293.274 231.457 293.11 232.927C293.002 234.698 292.503 236.411 291.613 238.066C290.728 239.723 289.314 240.655 287.37 240.859C286.197 240.927 284.997 240.688 283.774 240.142C282.549 239.592 281.336 239.131 280.132 238.76C278.932 238.39 277.775 238.56 276.66 239.27C275.275 240.165 274.6 241.066 274.63 241.97C274.665 242.871 275.126 243.722 276.012 244.524C276.901 245.327 277.914 246.012 279.052 246.577C280.188 247.138 281.143 247.522 281.914 247.726C283.072 248 284.355 248.226 285.765 248.405C287.179 248.587 288.542 248.872 289.854 249.262C291.166 249.654 292.254 250.335 293.118 251.307C293.936 252.156 294.355 253.218 294.376 254.493C294.395 255.77 294.202 257.02 293.797 258.243C293.396 259.468 292.935 260.522 292.416 261.407C291.191 263.315 289.74 264.412 288.064 264.702C286.392 264.995 284.486 264.997 282.346 264.71C279.758 264.333 277.179 263.917 274.607 263.46C272.034 263.006 269.426 262.588 266.783 262.202Z" fill="#EBB8B9"/>
<path d="M309.272 272.174C307.687 271.721 306.553 270.982 305.87 269.96C305.185 268.941 304.813 267.757 304.751 266.41C304.693 265.064 304.832 263.7 305.168 262.321C305.507 260.938 305.87 259.68 306.255 258.548C307.725 254.016 309.272 249.531 310.893 245.091C312.513 240.646 313.904 236.082 315.067 231.395C313.574 231.03 311.965 230.615 310.237 230.152C308.512 229.686 306.981 228.949 305.638 227.946C304.299 226.943 303.478 225.544 303.169 223.748C302.855 221.943 303.2 220.268 304.203 218.725C305.206 217.178 306.626 216.285 308.462 216.048C309.892 215.806 311.527 216.022 313.37 216.696C315.216 217.371 317.066 218.135 318.918 218.987C320.773 219.842 322.37 220.519 323.709 221.017C326.024 221.794 328.497 222.529 331.132 223.223C333.771 223.918 336.034 225.097 337.922 226.757C338.781 227.473 339.419 228.393 339.836 229.52C340.252 230.642 340.36 231.765 340.16 232.892C339.959 234.014 339.334 234.956 338.285 235.716C337.313 236.441 336.059 236.75 334.527 236.642C332.994 236.53 331.45 236.238 329.897 235.77C328.348 235.297 327.029 234.904 325.939 234.589C325.789 235.727 325.573 237.51 325.291 239.936C325.013 242.365 324.635 245.091 324.157 248.115C323.682 251.14 323.04 254.178 322.228 257.228C321.414 260.274 320.416 263.031 319.234 265.5C318.055 267.963 316.651 269.832 315.021 271.109C313.389 272.384 311.473 272.739 309.272 272.174Z" fill="#EBB8B9"/>
</svg>
