<svg width="19" height="15" viewBox="0 0 19 15" fill="none" xmlns="http://www.w3.org/2000/svg">
<path fill-rule="evenodd" clip-rule="evenodd" d="M6.8134 8.96749L9.5019 10.8057L12.0935 9.01784L17.9027 14.7492C17.7495 14.7992 17.5873 14.8246 17.4163 14.8252H1.58365C1.37465 14.8252 1.17515 14.7843 0.9918 14.7112L6.8134 8.96749ZM19 4.25739V13.2415C19 13.4762 18.9487 13.6985 18.8575 13.8989L13.1632 8.28064L19 4.25739ZM0 4.30774L5.7399 8.23314L0.1007 13.7982C0.0346396 13.62 0.000550042 13.4316 0 13.2415L0 4.30774ZM17.4163 0.575195C18.2903 0.575195 19 1.2839 19 2.15885V2.71554L9.4981 9.26579L0 2.7697V2.15885C0 1.28485 0.7087 0.575195 1.58365 0.575195H17.4163Z" fill="white"/>
</svg>
