<svg width="18" height="21" viewBox="0 0 18 21" fill="none" xmlns="http://www.w3.org/2000/svg">
<path d="M8.82559 0.885254L0.631836 4.52692V9.98942C0.631836 15.0422 4.12784 19.7673 8.82559 20.9144C13.5233 19.7673 17.0193 15.0422 17.0193 9.98942V4.52692L8.82559 0.885254ZM8.82559 6.34775C10.1002 6.34775 11.3748 7.34921 11.3748 8.6238V9.98942C11.921 9.98942 12.4673 10.5357 12.4673 11.173V14.3594C12.4673 14.9057 11.921 15.4519 11.2837 15.4519H6.27642C5.73017 15.4519 5.18392 14.9057 5.18392 14.2684V11.0819C5.18392 10.5357 5.73017 9.98942 6.27642 9.98942V8.6238C6.27642 7.34921 7.551 6.34775 8.82559 6.34775ZM8.82559 7.44025C8.09725 7.44025 7.45996 7.89546 7.45996 8.6238V9.98942H10.1912V8.6238C10.1912 7.89546 9.55392 7.44025 8.82559 7.44025Z" fill="white"/>
</svg>
