<svg width="23" height="23" viewBox="0 0 23 23" fill="none" xmlns="http://www.w3.org/2000/svg">
<g clip-path="url(#clip0_153_2031)">
<path d="M11.8249 18.0552C9.54883 18.0552 7.53681 16.8898 6.36237 15.1418C6.38968 13.321 10.004 12.3195 11.8249 12.3195C13.6457 12.3195 17.2601 13.321 17.2874 15.1418C16.1129 16.8898 14.1009 18.0552 11.8249 18.0552ZM11.8249 5.12725C12.5492 5.12725 13.2439 5.415 13.7562 5.92721C14.2684 6.43942 14.5561 7.13412 14.5561 7.8585C14.5561 8.58287 14.2684 9.27757 13.7562 9.78978C13.2439 10.302 12.5492 10.5897 11.8249 10.5897C11.1005 10.5897 10.4058 10.302 9.89358 9.78978C9.38137 9.27757 9.09362 8.58287 9.09362 7.8585C9.09362 7.13412 9.38137 6.43942 9.89358 5.92721C10.4058 5.415 11.1005 5.12725 11.8249 5.12725ZM11.8249 2.396C10.6293 2.396 9.44542 2.63148 8.34086 3.08901C7.23629 3.54654 6.23265 4.21714 5.38725 5.06254C3.67989 6.76991 2.7207 9.08559 2.7207 11.5002C2.7207 13.9147 3.67989 16.2304 5.38725 17.9378C6.23265 18.7832 7.23629 19.4538 8.34086 19.9113C9.44542 20.3688 10.6293 20.6043 11.8249 20.6043C14.2394 20.6043 16.5551 19.6451 18.2625 17.9378C19.9699 16.2304 20.929 13.9147 20.929 11.5002C20.929 6.46556 16.8322 2.396 11.8249 2.396Z" fill="white"/>
</g>
<defs>
<clipPath id="clip0_153_2031">
<rect width="21.85" height="21.85" fill="white" transform="translate(0.900391 0.575195)"/>
</clipPath>
</defs>
</svg>
