<svg width="256" height="256" viewBox="0 0 256 256" fill="none" xmlns="http://www.w3.org/2000/svg">
<path d="M128.426 21.3334C70.1862 21.3334 22.7195 68.8 22.7195 127.04C22.7195 145.707 27.6262 163.84 36.7995 179.84L21.8662 234.667L77.8662 219.947C93.3329 228.373 110.72 232.853 128.426 232.853C186.666 232.853 234.133 185.387 234.133 127.147C234.133 98.88 223.146 72.32 203.2 52.3734C183.253 32.32 156.693 21.3334 128.426 21.3334ZM128.533 39.1467C152 39.1467 173.973 48.32 190.613 64.96C207.146 81.6 216.32 103.68 216.32 127.147C216.32 175.573 176.853 214.933 128.426 214.933C112.64 214.933 97.1729 210.773 83.7329 202.667L80.5329 200.853L47.2529 209.6L56.1062 177.173L53.9729 173.76C45.2262 160 40.5329 143.68 40.5329 127.04C40.6395 78.6134 79.9995 39.1467 128.533 39.1467ZM90.9862 78.1867C89.2795 78.1867 86.3995 78.8267 83.9462 81.4934C81.5995 84.16 74.6662 90.6667 74.6662 103.573C74.6662 116.587 84.1595 129.067 85.3329 130.88C86.8262 132.693 104.106 159.36 130.666 170.667C136.96 173.547 141.866 175.147 145.706 176.32C152 178.347 157.76 178.027 162.346 177.387C167.466 176.64 177.92 170.987 180.16 164.8C182.4 158.613 182.4 153.387 181.76 152.213C181.013 151.147 179.306 150.507 176.64 149.333C173.973 147.84 160.96 141.44 158.613 140.587C156.16 139.733 154.666 139.307 152.64 141.867C150.933 144.533 145.813 150.507 144.32 152.213C142.72 154.027 141.226 154.24 138.666 152.96C135.893 151.573 127.36 148.8 117.333 139.84C109.44 132.8 104.213 124.16 102.613 121.493C101.333 118.933 102.506 117.333 103.786 116.16C104.96 114.987 106.666 113.067 107.733 111.467C109.12 109.973 109.546 108.8 110.4 107.093C111.253 105.28 110.826 103.787 110.186 102.507C109.546 101.333 104.213 88.1067 101.973 82.88C99.8395 77.76 97.7062 78.4 95.9995 78.2934C94.5062 78.2934 92.7995 78.1867 90.9862 78.1867Z" fill="#831216"/>
</svg>
